<?xml version="1.0" encoding="UTF-8" standalone="no"?>
<!-- Created with Inkscape (http://www.inkscape.org/) -->

<svg
   xmlns:dc="http://purl.org/dc/elements/1.1/"
   xmlns:cc="http://creativecommons.org/ns#"
   xmlns:rdf="http://www.w3.org/1999/02/22-rdf-syntax-ns#"
   xmlns:svg="http://www.w3.org/2000/svg"
   xmlns="http://www.w3.org/2000/svg"
   xmlns:sodipodi="http://sodipodi.sourceforge.net/DTD/sodipodi-0.dtd"
   xmlns:inkscape="http://www.inkscape.org/namespaces/inkscape"
   width="800"
   height="600"
   id="svg4586"
   version="1.1"
   inkscape:version="0.91 r13725"
   viewBox="0 0 800 600"
   sodipodi:docname="Logo MeuseTech 600x600.svg">
  <defs
     id="defs4588" />
  <sodipodi:namedview
     id="base"
     pagecolor="#ffffff"
     bordercolor="#666666"
     borderopacity="1.0"
     inkscape:pageopacity="0.0"
     inkscape:pageshadow="2"
     inkscape:zoom="1.2"
     inkscape:cx="469.2826"
     inkscape:cy="284.96053"
     inkscape:current-layer="layer1"
     inkscape:document-units="px"
     showgrid="false"
     inkscape:window-width="1920"
     inkscape:window-height="1017"
     inkscape:window-x="-8"
     inkscape:window-y="-8"
     inkscape:window-maximized="1">
    <inkscape:grid
       type="xygrid"
       id="grid4654" />
  </sodipodi:namedview>
  <metadata
     id="metadata4591">
    <rdf:RDF>
      <cc:Work
         rdf:about="">
        <dc:format>image/svg+xml</dc:format>
        <dc:type
           rdf:resource="http://purl.org/dc/dcmitype/StillImage" />
        <dc:title></dc:title>
      </cc:Work>
    </rdf:RDF>
  </metadata>
  <g
     id="layer1"
     inkscape:label="Layer 1"
     inkscape:groupmode="layer">
    <path
       style="fill:#c0c0c0;fill-opacity:1;stroke-width:0;stroke-miterlimit:4;stroke-dasharray:none"
       d="m 551.68878,119.49948 0,353.97158 A 181.32838,208.77933 0 0 1 466.23865,296.40601 181.32838,208.77933 0 0 1 551.68878,119.49948 Z"
       id="elem1"
       inkscape:connector-curvature="0" />
    <path
       style="fill:#ec8e2c;fill-opacity:1;fill-rule:evenodd;stroke:#000000;stroke-width:0;stroke-linecap:butt;stroke-linejoin:miter;stroke-miterlimit:4;stroke-dasharray:none;stroke-opacity:1"
       d="m 701.1077,438.69315 a 321.09576,281.58003 0 0 0 42.98019,-140.02645 321.09576,281.58003 0 0 0 -0.0265,-0.46473 l -92.87731,0 a 226.95227,199.02234 0 0 1 -31.07562,99.52249 l 80.99932,40.96869 z"
       id="orange"
       inkscape:connector-curvature="0" />
    <path
       style="fill:#0173bc;fill-opacity:1;stroke-width:0;stroke-miterlimit:4;stroke-dasharray:none"
       d="m 651.19936,291.78565 c -0.1897,-2.19116 -0.50446,-6.70424 -0.69951,-10.02882 -1.53402,-26.14809 -12.0539,-57.48182 -27.52268,-81.97706 l -2.83722,-4.49267 39.57989,-20.09155 39.57987,-20.09154 3.09517,4.80121 c 7.47939,11.60194 16.20613,28.44325 21.73732,41.94977 11.10196,27.10953 17.47704,55.94953 18.60386,84.1607 l 0.38957,9.75418 -45.79071,0 -45.79069,0 -0.34487,-3.98422 z"
       id="bleu"
       inkscape:connector-curvature="0" />
    <path
       style="fill-opacity:1;stroke-width:0;stroke-miterlimit:4;stroke-dasharray:none"
       d="m 614.50627,187.69499 c -7.95775,-11.12585 -18.2214,-22.4778 -30.21186,-33.41548 l -6.80201,-6.20485 0,-49.237767 0,-49.237777 5.48318,2.82056 c 45.21538,23.25936 83.4918,56.150404 111.35116,95.684644 1.65893,2.35409 2.90973,4.36787 2.77955,4.47495 -0.58674,0.48265 -78.41866,39.87841 -78.78388,39.87745 -0.22603,0 -1.94329,-2.1432 -3.81614,-4.76173 z"
       id="marron"
       inkscape:connector-curvature="0" />
    <path
       style="fill:#33b160;fill-opacity:1;fill-rule:evenodd;stroke:#000000;stroke-width:0;stroke-linecap:butt;stroke-linejoin:miter;stroke-miterlimit:4;stroke-dasharray:none;stroke-opacity:1"
       d="M 577.8702,546.18793 A 321.09576,281.58003 0 0 0 699.62171,440.63605 L 618.6224,399.66736 a 226.95227,199.02234 0 0 1 -40.7522,44.78362 l 0,101.73695 z"
       id="vert"
       inkscape:connector-curvature="0" />
    <rect
       style="fill:#7f7f7f;fill-opacity:1;stroke-width:0;stroke-miterlimit:4;stroke-dasharray:none"
       id="elem6"
       width="2.7446611"
       height="600"
       x="551.1264"
       y="-0.23322038" />
    <path
       style="font-style:normal;font-variant:normal;font-weight:normal;font-stretch:normal;font-size:71.30758667px;line-height:125%;font-family:'Century Gothic';-inkscape-font-specification:'Century Gothic, Normal';text-align:start;letter-spacing:0px;word-spacing:0px;writing-mode:lr-tb;text-anchor:start;fill:#000000;fill-opacity:1;stroke:none;stroke-width:1px;stroke-linecap:butt;stroke-linejoin:miter;stroke-opacity:1"
       d="m 324.6781,236.16145 c -1.76144,1e-5 -3.16256,0.47825 -4.20638,1.4336 -1.10905,1.07477 -1.66341,2.387 -1.66341,3.93945 0,2.20926 1.27015,3.67216 3.81445,4.38867 1.37002,0.29855 2.05534,0.98578 2.05534,2.06055 0,2.32868 -1.95547,4.71792 -5.86979,7.16602 l 1.56544,1.43164 c 3.9143,-2.56752 6.58786,-5.04521 8.02311,-7.4336 1.43524,-2.38838 2.15331,-4.53851 2.15331,-6.44922 0,-2.03012 -0.61984,-3.70201 -1.85937,-5.01562 -1.30477,-1.01506 -2.64269,-1.52149 -4.0127,-1.52149 z m 173.37992,2.10352 0,53.10742 5.62369,0 0,-14.05078 c 0,-5.07137 0.26662,-8.54749 0.80209,-10.42578 0.85675,-2.91134 2.62507,-5.35202 5.3024,-7.32422 2.70413,-1.9722 5.75538,-2.95898 9.15561,-2.95898 2.97185,0 5.36853,0.64618 7.18913,1.9375 1.84737,1.26784 3.11834,3.16939 3.81445,5.70508 0.4016,1.47914 0.60156,4.42587 0.60156,8.83984 l 0,18.27734 5.62371,0 0,-19.7207 c 0,-5.23572 -0.60217,-9.07581 -1.80697,-11.51758 -1.20481,-2.46525 -3.08023,-4.42519 -5.6237,-5.88086 -2.51671,-1.45567 -5.40844,-2.18359 -8.67481,-2.18359 -3.18604,0 -6.14444,0.65785 -8.87532,1.97265 -2.7309,1.29133 -5.2324,3.25126 -7.50815,5.88086 l 0,-21.6582 -5.62369,0 z m -445.57788,1.30274 -8.392249,51.80468 5.703449,0 5.74219,-37.33008 21.16406,37.33008 1.48568,0 20.8838,-37.04883 5.7832,37.04883 5.82195,0 -8.47201,-51.80468 -0.96387,0 -23.7754,42.50781 -24.01693,-42.50781 -0.96387,0 z m 299.11333,0 0,5.03515 13.21387,0 0,46.76953 6.02246,0 0,-46.76953 13.17286,0 0,-5.03515 -32.40919,0 z m -209.27314,12.50195 c -7.22883,0 -13.00036,2.41732 -17.31088,7.2539 -3.40022,3.80353 -5.09961,8.13603 -5.09961,12.9961 0,5.16528 2.00873,9.80336 6.02475,13.91211 4.01601,4.08527 9.58528,6.12695 16.70703,6.12695 3.21281,0 6.09031,-0.42235 8.63379,-1.26758 2.54347,-0.8687 4.83305,-2.12408 6.86784,-3.76758 2.03478,-1.6435 3.82702,-3.80391 5.37988,-6.48046 l -4.73731,-2.1836 c -1.71349,2.51221 -3.30806,4.33201 -4.7806,5.45899 -1.47253,1.12697 -3.26478,2.03006 -5.37987,2.71093 -2.08834,0.68088 -4.24461,1.02149 -6.4668,1.02149 -4.60504,0 -8.47265,-1.42081 -11.60515,-4.26172 -3.13249,-2.86439 -4.75326,-6.52735 -4.86035,-10.98828 l 39.27702,0 c -0.0536,-5.23572 -1.66006,-9.6013 -4.81934,-13.09961 -4.44439,-4.95398 -10.38738,-7.43164 -17.8304,-7.43164 z m 92.97104,0 c -3.45378,0 -6.31931,0.96343 -8.59505,2.88867 -2.24897,1.92524 -3.37467,4.34256 -3.37467,7.25391 0,2.23046 0.71154,4.21375 2.13053,5.95117 1.41899,1.73741 4.09425,3.49883 8.02995,5.2832 3.66796,1.6435 6.0242,3.00592 7.06836,4.08594 1.04416,1.10349 1.5677,2.35886 1.5677,3.76758 0,1.71393 -0.79015,3.20481 -2.36978,4.47265 -1.57964,1.26785 -3.49322,1.90235 -5.74219,1.90235 -3.21282,0 -6.25211,-1.42082 -9.11686,-4.26172 l -3.53419,3.52148 c 1.49932,1.69046 3.3867,3.01785 5.66244,3.98047 2.30251,0.96262 4.71115,1.44336 7.22787,1.44336 3.77505,0 6.92144,-1.09188 9.43814,-3.27539 2.51671,-2.18351 3.77572,-4.84801 3.77572,-7.99414 0,-2.23046 -0.73774,-4.23711 -2.21028,-6.02148 -1.49932,-1.7609 -4.33636,-3.59238 -8.51303,-5.49415 -3.427,-1.54958 -5.67613,-2.90033 -6.74707,-4.05078 -1.07094,-1.12697 -1.60644,-2.31227 -1.60644,-3.55664 0,-1.40871 0.64261,-2.64073 1.92773,-3.69726 1.3119,-1.05654 2.87798,-1.58594 4.69858,-1.58594 2.86475,0 5.79694,1.28068 8.79557,3.83984 l 3.61392,-3.27539 c -4.06955,-3.45135 -8.11093,-5.17773 -12.12695,-5.17773 z m 42.4489,0 c -7.22883,0 -12.99806,2.41732 -17.3086,7.2539 -3.40022,3.80353 -5.10189,8.13603 -5.10189,12.9961 0,5.16528 2.00873,9.80336 6.02475,13.91211 4.01602,4.08527 9.58529,6.12695 16.70703,6.12695 3.21282,0 6.09032,-0.42235 8.63379,-1.26758 2.54348,-0.8687 4.83306,-2.12408 6.86784,-3.76758 2.03479,-1.6435 3.82702,-3.80391 5.37989,-6.48046 l -4.73731,-2.1836 c -1.71351,2.51221 -3.30806,4.33201 -4.7806,5.45899 -1.47254,1.12697 -3.26478,2.03006 -5.37989,2.71093 -2.08832,0.68088 -4.24459,1.02149 -6.46679,1.02149 -4.60503,0 -8.47266,-1.42081 -11.60515,-4.26172 -3.13249,-2.86439 -4.75326,-6.52735 -4.86034,-10.98828 l 39.27701,0 c -0.0536,-5.23572 -1.66007,-9.6013 -4.81933,-13.09961 -4.4444,-4.95398 -10.38739,-7.43164 -17.83041,-7.43164 z m 133.973,0 c -7.22883,0 -12.99807,2.41732 -17.30859,7.2539 -3.40023,3.80353 -5.09961,8.13603 -5.09961,12.9961 0,5.16528 2.00644,9.80336 6.02246,13.91211 4.01602,4.08527 9.5853,6.12695 16.70703,6.12695 3.21281,0 6.09259,-0.42235 8.63608,-1.26758 2.54347,-0.8687 4.83077,-2.12408 6.86555,-3.76758 2.03479,-1.6435 3.82931,-3.80391 5.38216,-6.48046 l -4.73958,-2.1836 c -1.7135,2.51221 -3.30578,4.33201 -4.77832,5.45899 -1.47254,1.12697 -3.26706,2.03006 -5.38216,2.71093 -2.08833,0.68088 -4.24233,1.02149 -6.46452,1.02149 -4.60504,0 -8.47493,-1.42081 -11.60742,-4.26172 -3.1325,-2.86439 -4.75098,-6.52735 -4.85808,-10.98828 l 39.27703,0 c -0.0535,-5.23572 -1.66007,-9.6013 -4.81934,-13.09961 -4.44439,-4.95398 -10.38967,-7.43164 -17.83269,-7.43164 z m 55.58302,0 c -4.60503,0 -8.77003,0.89141 -12.49154,2.67578 -3.72151,1.78437 -6.65142,4.27371 -8.79329,7.4668 -2.1151,3.1696 -3.17415,6.60874 -3.17415,10.31836 0,5.51746 2.27761,10.20224 6.82909,14.05273 4.5515,3.85049 10.28029,5.77539 17.18783,5.77539 4.49794,0 8.50115,-0.75128 12.00847,-2.25391 3.5341,-1.5261 6.34494,-3.66316 8.43327,-6.41015 l -4.45931,-2.57031 c -4.06956,4.4844 -9.31526,6.72656 -15.74088,6.72656 -3.50733,0 -6.67993,-0.68121 -9.51792,-2.04297 -2.81121,-1.36176 -5.03413,-3.27499 -6.66731,-5.74023 -1.60641,-2.46525 -2.41081,-5.09473 -2.41081,-7.88868 0,-4.29657 1.75407,-7.94787 5.2614,-10.95312 3.53409,-3.00526 7.96569,-4.50781 13.29362,-4.50781 6.66659,0 11.92653,2.24215 15.7819,6.72656 l 4.45931,-2.42969 c -1.3119,-1.92524 -2.90646,-3.50954 -4.7806,-4.75391 -1.87414,-1.24436 -4.16145,-2.2545 -6.86556,-3.02929 -2.67735,-0.7748 -5.46198,-1.16211 -8.35352,-1.16211 z m -292.52804,0.98633 0,18.45312 c 0,5.44703 0.69729,9.53235 2.08951,12.25586 1.419,2.70004 3.54679,4.81374 6.38477,6.33984 2.86477,1.50263 6.42532,2.25391 10.6823,2.25391 4.25698,0 7.79133,-0.75128 10.60254,-2.25391 2.83798,-1.5261 4.9538,-3.62813 6.34603,-6.30468 1.41899,-2.67656 2.12825,-6.65483 2.12825,-11.9375 l 0,-18.80664 -5.74218,0 0,17.89062 c 0,4.78963 -0.28314,7.9232 -0.84538,9.40234 -0.82998,2.16003 -2.34136,3.90977 -4.53678,5.24805 -2.16865,1.3148 -4.81998,1.97266 -7.95248,1.97266 -3.13249,0 -5.83624,-0.68121 -8.11198,-2.04297 -2.24897,-1.36176 -3.7746,-3.2166 -4.5778,-5.56445 -0.53548,-1.6435 -0.80437,-4.64862 -0.80437,-9.01563 l 0,-17.89062 -5.66243,0 z m -32.36817,3.73242 c 2.59703,0 5.07232,0.48074 7.42839,1.44336 2.35606,0.96262 4.24572,2.23162 5.66471,3.80468 1.44576,1.57307 2.54299,3.67509 3.29264,6.30469 l -32.52995,0 c 1.15126,-3.52178 2.85064,-6.16489 5.09961,-7.92578 3.07895,-2.41829 6.76085,-3.62695 11.0446,-3.62695 z m 135.41995,0 c 2.59702,0 5.0746,0.48074 7.43066,1.44336 2.35606,0.96262 4.24344,2.23162 5.66243,3.80468 1.44577,1.57307 2.543,3.67509 3.29265,6.30469 l -32.52995,0 c 1.15125,-3.52178 2.85063,-6.16489 5.09961,-7.92578 3.07895,-2.41829 6.76084,-3.62695 11.0446,-3.62695 z m 133.97527,0 c 2.59704,0 5.07233,0.48074 7.42839,1.44336 2.35607,0.96262 4.24345,2.23162 5.66244,3.80468 1.44577,1.57307 2.54298,3.67509 3.29264,6.30469 l -32.52995,0 c 1.15125,-3.52178 2.85292,-6.16489 5.10189,-7.92578 3.07894,-2.41829 6.76085,-3.62695 11.04459,-3.62695 z m -144.7601,50.84765 c -0.4598,0 -0.69044,0.21799 -0.69044,0.65625 l 0,6.39063 c 0,0.38567 0.23064,0.57812 0.69044,0.57812 0.45978,0 0.69042,-0.19245 0.69042,-0.57812 l 0,-6.39063 c 0,-0.43826 -0.23064,-0.65625 -0.69042,-0.65625 z m 8.09602,1.28711 c -0.47978,0 -0.84982,0.14139 -1.1097,0.42188 -0.23989,0.26296 -0.36003,0.58698 -0.36003,0.97266 0,0.36814 0.12014,0.67449 0.36003,0.91992 0.25988,0.28049 0.62992,0.41992 1.1097,0.41992 0.4598,0 0.82983,-0.13943 1.1097,-0.41992 0.25989,-0.26296 0.38966,-0.56931 0.38966,-0.91992 0,-0.38568 -0.12977,-0.7097 -0.38966,-0.97266 -0.27987,-0.28049 -0.6499,-0.42188 -1.1097,-0.42188 z m 103.93362,0 c -0.47978,0 -0.84983,0.14139 -1.1097,0.42188 -0.23989,0.26296 -0.36004,0.58698 -0.36004,0.97266 0,0.36814 0.12015,0.67449 0.36004,0.91992 0.25987,0.28049 0.62992,0.41992 1.1097,0.41992 0.45978,0 0.82982,-0.13943 1.10969,-0.41992 0.25988,-0.26296 0.38965,-0.56931 0.38965,-0.91992 0,-0.38568 -0.12977,-0.7097 -0.38965,-0.97266 -0.27987,-0.28049 -0.64991,-0.42188 -1.10969,-0.42188 z m -119.94567,0.0527 c -0.25987,0 -0.48088,0.0609 -0.66081,0.18359 -0.17991,0.15778 -0.26887,0.36985 -0.26887,0.63281 l 0,6.83594 c -0.61972,-0.82394 -1.35979,-1.42878 -2.21941,-1.81445 -0.83961,-0.38568 -1.82959,-0.57813 -2.96907,-0.57813 -2.29895,0 -4.0868,0.77176 -5.36621,2.31446 -1.13947,1.36739 -1.70898,3.09354 -1.70898,5.17968 0,2.06862 0.56951,3.78691 1.70898,5.1543 1.27941,1.56023 3.06726,2.33985 5.36621,2.33984 1.19945,0 2.29031,-0.23565 3.26985,-0.70898 0.83962,-0.42074 1.47883,-0.93916 1.91863,-1.55273 l 0,1.13086 c 0,0.24542 0.089,0.44769 0.26887,0.60546 0.17993,0.14025 0.3913,0.2188 0.63119,0.23633 0.25989,0 0.46898,-0.0609 0.62891,-0.18359 0.1999,-0.15778 0.31041,-0.37771 0.33041,-0.6582 l 0,-18.24805 c 0,-0.28049 -0.10088,-0.50043 -0.30079,-0.6582 -0.17991,-0.14025 -0.38902,-0.21094 -0.62891,-0.21094 z m -97.30503,0.39453 c -0.47978,0 -0.72004,0.24547 -0.72004,0.73633 0,0.49086 0.24026,0.73633 0.72004,0.73633 l 6.35743,0 0,17.51367 c 0,0.24543 0.089,0.44769 0.26888,0.60547 0.17992,0.14024 0.40092,0.20898 0.66081,0.20898 0.23989,0 0.44898,-0.0687 0.6289,-0.20898 0.19991,-0.15778 0.30078,-0.36004 0.30078,-0.60547 l 0,-17.51367 6.08627,0 c 0.29986,0 0.54013,-0.0786 0.72005,-0.23633 0.17992,-0.14025 0.26889,-0.30717 0.26889,-0.5 0,-0.21037 -0.089,-0.38515 -0.26889,-0.52539 -0.17992,-0.14025 -0.42019,-0.21094 -0.72005,-0.21094 l -14.30307,0 z m 208.1042,0.81641 c -0.25987,0 -0.48089,0.0609 -0.6608,0.18359 -0.17992,0.14024 -0.26888,0.34056 -0.26888,0.60351 l 0,3.65626 -1.62011,0 c -0.4598,0 -0.68816,0.23565 -0.68816,0.70898 0,0.49086 0.22836,0.73633 0.68816,0.73633 l 1.62011,0 0,10.54492 c 0,0.6837 0.24028,1.263 0.72006,1.73633 0.51976,0.54345 1.2383,0.81445 2.15787,0.81445 l 1.41048,0 c 0.27987,0 0.51051,-0.0786 0.69043,-0.23633 0.15993,-0.14024 0.23925,-0.30716 0.23926,-0.5 0,-0.21037 -0.0793,-0.38514 -0.23926,-0.52539 -0.17992,-0.14024 -0.41056,-0.21094 -0.69043,-0.21094 l -1.08008,0 c -0.43979,0 -0.77866,-0.13157 -1.01855,-0.39453 -0.19991,-0.21036 -0.30078,-0.47351 -0.30078,-0.78906 l 0,-10.43945 2.45865,0 c 0.51977,0 0.7793,-0.24547 0.7793,-0.73633 0,-0.47333 -0.25953,-0.70898 -0.7793,-0.70898 l -2.45865,0 0,-3.65626 c 0,-0.26295 -0.10087,-0.46327 -0.30078,-0.60351 -0.17992,-0.12272 -0.39865,-0.18359 -0.65854,-0.18359 z m -94.78712,3.9707 c -0.25988,0 -0.47861,0.0687 -0.65852,0.20898 -0.17993,0.12272 -0.27117,0.30731 -0.27117,0.55274 l 0,13.38476 c 0,0.26296 0.0912,0.4829 0.27117,0.65821 0.17991,0.14024 0.39864,0.20898 0.65852,0.20898 0.25989,0 0.48089,-0.0786 0.66081,-0.23633 0.19991,-0.15777 0.29851,-0.3679 0.29851,-0.63086 l 0,-13.38476 c 0,-0.24543 -0.0986,-0.43788 -0.29851,-0.57813 -0.17992,-0.12271 -0.40092,-0.18359 -0.66081,-0.18359 z m 103.93362,0 c -0.25989,0 -0.48089,0.0687 -0.66082,0.20898 -0.17991,0.12272 -0.26888,0.30731 -0.26888,0.55274 l 0,13.38476 c 0,0.26296 0.089,0.4829 0.26888,0.65821 0.17993,0.14024 0.40093,0.20898 0.66082,0.20898 0.25987,0 0.47861,-0.0786 0.65852,-0.23633 0.19991,-0.15777 0.30078,-0.3679 0.30078,-0.63086 l 0,-13.38476 c 0,-0.24543 -0.10087,-0.43788 -0.30078,-0.57813 -0.17991,-0.12271 -0.39865,-0.18359 -0.65852,-0.18359 z m -192.09216,0.0254 c -2.13902,0 -3.83791,0.77175 -5.09733,2.31445 -1.13948,1.41999 -1.71126,3.15595 -1.71126,5.20703 0,2.03356 0.57178,3.74989 1.71126,5.15235 1.25942,1.5427 2.95831,2.31445 5.09733,2.31445 1.51931,0 2.83851,-0.34169 3.958,-1.02539 1.0995,-0.64863 1.93817,-1.58535 2.51791,-2.8125 0.11995,-0.26296 0.11995,-0.50843 0,-0.73633 -0.1,-0.19284 -0.26825,-0.32441 -0.50814,-0.39453 -0.25987,-0.0876 -0.50978,-0.0975 -0.74967,-0.0273 -0.25988,0.10518 -0.45199,0.28977 -0.57194,0.55273 -0.47978,0.9116 -1.02775,1.59499 -1.64746,2.05078 -0.79964,0.61358 -1.79925,0.91992 -2.9987,0.91992 -1.5193,0 -2.7303,-0.60483 -3.62988,-1.81445 -0.77965,-1.01678 -1.20748,-2.26966 -1.28744,-3.75976 l 11.78288,0 0,-0.41993 c 0,-2.05108 -0.57914,-3.78704 -1.7386,-5.20703 -1.27942,-1.5427 -2.98794,-2.31445 -5.12696,-2.31445 z m 17.48177,0 c -0.95956,0 -1.81978,0.21012 -2.57943,0.63086 -0.57973,0.31555 -1.12034,0.78096 -1.62012,1.39453 l 0,-1.07812 c 0,-0.24543 -0.0986,-0.43984 -0.2985,-0.58008 -0.17991,-0.10519 -0.38901,-0.15625 -0.6289,-0.15625 -0.25988,0 -0.48089,0.0609 -0.66081,0.18359 -0.17992,0.14025 -0.26887,0.32484 -0.26887,0.55274 l 0,13.17382 c 0,0.26296 0.089,0.47309 0.26887,0.63086 0.17992,0.14025 0.40093,0.21094 0.66081,0.21094 0.23989,0 0.44899,-0.0707 0.6289,-0.21094 0.19991,-0.15777 0.2985,-0.3679 0.2985,-0.63086 l 0,-10.25586 c 0.35984,-0.68369 0.88119,-1.21784 1.56088,-1.60351 0.75965,-0.43827 1.6295,-0.65821 2.60905,-0.65821 0.49978,0 0.73776,-0.271 0.71778,-0.81445 -0.02,-0.52592 -0.24836,-0.78906 -0.68816,-0.78906 z m 10.25391,0 c -0.95956,0 -1.8175,0.21012 -2.57715,0.63086 -0.57974,0.31555 -1.12035,0.78096 -1.62011,1.39453 l 0,-1.07812 c 0,-0.24543 -0.10087,-0.43984 -0.30078,-0.58008 -0.17993,-0.10519 -0.38903,-0.15625 -0.62892,-0.15625 -0.25987,0 -0.4786,0.0609 -0.65852,0.18359 -0.17993,0.14025 -0.27116,0.32484 -0.27116,0.55274 l 0,13.17382 c 0,0.26296 0.0912,0.47309 0.27116,0.63086 0.17992,0.14025 0.39865,0.21094 0.65852,0.21094 0.23989,0 0.44899,-0.0707 0.62892,-0.21094 0.19991,-0.15777 0.30078,-0.3679 0.30078,-0.63086 l 0,-10.25586 c 0.35983,-0.68369 0.87891,-1.21784 1.55859,-1.60351 0.75966,-0.43827 1.6295,-0.65821 2.60904,-0.65821 0.49978,0 0.74006,-0.271 0.72006,-0.81445 -0.02,-0.52592 -0.25064,-0.78906 -0.69043,-0.78906 z m 10.22657,0 c -2.13903,0 -3.83792,0.77175 -5.09734,2.31445 -1.13948,1.41999 -1.70899,3.15595 -1.70899,5.20703 0,2.03356 0.56951,3.74989 1.70899,5.15235 1.25942,1.5427 2.95831,2.31445 5.09734,2.31445 1.5193,0 2.83852,-0.34169 3.95801,-1.02539 1.09949,-0.64863 1.93817,-1.58535 2.5179,-2.8125 0.11994,-0.26296 0.11994,-0.50843 0,-0.73633 -0.1,-0.19284 -0.26826,-0.32441 -0.50815,-0.39453 -0.25987,-0.0876 -0.50977,-0.0975 -0.74966,-0.0273 -0.25989,0.10518 -0.44973,0.28977 -0.56967,0.55273 -0.47978,0.9116 -1.03002,1.59499 -1.64974,2.05078 -0.79963,0.61358 -1.79924,0.91992 -2.99869,0.91992 -1.51931,0 -2.72802,-0.60483 -3.62762,-1.81445 -0.77963,-1.01678 -1.20974,-2.26966 -1.2897,-3.75976 l 11.78288,0 0,-0.41993 c 0,-2.05108 -0.57914,-3.78704 -1.73861,-5.20703 -1.27942,-1.5427 -2.98794,-2.31445 -5.12695,-2.31445 z m 63.78158,0 c -1.25942,0 -2.35991,0.23761 -3.29947,0.71094 -0.8996,0.45579 -1.63967,1.1117 -2.21941,1.9707 l 0,-1.62891 c 0,-0.26296 -0.0986,-0.47503 -0.29851,-0.63281 -0.17991,-0.14024 -0.39129,-0.20898 -0.63118,-0.20898 -0.25988,0 -0.47861,0.0687 -0.65853,0.20898 -0.17991,0.15778 -0.27116,0.36985 -0.27116,0.63281 l 0,13.06836 c 0,0.28049 0.0913,0.50043 0.27116,0.65821 0.17992,0.15777 0.39865,0.23632 0.65853,0.23632 0.23989,-0.0175 0.45127,-0.0961 0.63118,-0.23632 0.19991,-0.17531 0.29851,-0.40506 0.29851,-0.68555 l 0,-9.36133 c 0.69968,-1.12196 1.51909,-1.95459 2.45865,-2.49805 0.8996,-0.52592 1.92076,-0.78906 3.06023,-0.78906 1.03952,0 1.86857,0.28082 2.48828,0.8418 0.55974,0.49086 0.83854,1.11337 0.83854,1.86719 l 0,9.96679 c 0,0.26296 0.0912,0.4829 0.27117,0.65821 0.17991,0.14024 0.39864,0.20898 0.65852,0.20898 0.23989,0 0.45127,-0.0687 0.63118,-0.20898 0.19991,-0.17531 0.2985,-0.39525 0.2985,-0.65821 l 0,-9.96679 c 0,-1.1395 -0.43974,-2.09389 -1.31933,-2.86524 -0.95956,-0.859 -2.2476,-1.28906 -3.86686,-1.28906 z m 17.8099,0 c -1.25942,0 -2.35763,0.23761 -3.29721,0.71094 -0.89958,0.45579 -1.63965,1.1117 -2.21939,1.9707 l 0,-1.62891 c 0,-0.26296 -0.10087,-0.47503 -0.30078,-0.63281 -0.17993,-0.14024 -0.38902,-0.20898 -0.62891,-0.20898 -0.25988,0 -0.47861,0.0687 -0.65853,0.20898 -0.17991,0.15778 -0.27116,0.36985 -0.27116,0.63281 l 0,13.06836 c 0,0.28049 0.0913,0.50043 0.27116,0.65821 0.17992,0.15777 0.39865,0.23632 0.65853,0.23632 0.23989,-0.0175 0.44898,-0.0961 0.62891,-0.23632 0.19991,-0.17531 0.30078,-0.40506 0.30078,-0.68555 l 0,-9.36133 c 0.69968,-1.12196 1.51909,-1.95459 2.45865,-2.49805 0.8996,-0.52592 1.91847,-0.78906 3.05795,-0.78906 1.03953,0 1.87085,0.28082 2.49056,0.8418 0.55974,0.49086 0.83854,1.11337 0.83854,1.86719 l 0,9.96679 c 0,0.26296 0.0912,0.4829 0.27116,0.65821 0.17992,0.14024 0.39865,0.20898 0.65853,0.20898 0.23989,0 0.44898,-0.0687 0.62891,-0.20898 0.1999,-0.17531 0.30077,-0.39525 0.30077,-0.65821 l 0,-9.96679 c 0,-1.1395 -0.43974,-2.09389 -1.31933,-2.86524 -0.95956,-0.859 -2.24988,-1.28906 -3.86914,-1.28906 z m 28.05241,0 c -0.11994,0 -0.24376,0.0177 -0.37369,0.0527 -0.23989,0.0701 -0.42973,0.18402 -0.56967,0.3418 -0.13993,0.17531 -0.17111,0.36776 -0.0911,0.57813 l 5.5485,13.14843 c 0.17991,0.57852 0.55959,0.86719 1.13932,0.86719 0.55975,0 0.94905,-0.28867 1.16894,-0.86719 l 5.57813,-13.14843 c 0.08,-0.21037 0.0392,-0.40282 -0.12076,-0.57813 -0.11995,-0.15778 -0.30979,-0.27167 -0.56966,-0.3418 -0.25989,-0.0701 -0.50015,-0.0701 -0.72006,0 -0.23989,0.0701 -0.39855,0.21937 -0.47852,0.44727 l -4.82845,11.9375 -4.82845,-11.9375 c -0.1,-0.2279 -0.26825,-0.37714 -0.50814,-0.44727 -0.10994,-0.0351 -0.2264,-0.0527 -0.34635,-0.0527 z m 22.38543,0 c -1.67924,0 -3.02963,0.32402 -4.04916,0.97266 -1.03953,0.68369 -1.67874,1.70092 -1.91863,3.05078 -0.06,0.26296 1.1e-4,0.47308 0.18002,0.63086 0.15993,0.15777 0.35939,0.24614 0.59928,0.26367 0.25989,0.0175 0.48089,-0.0355 0.66081,-0.1582 0.2199,-0.12272 0.34967,-0.2975 0.38965,-0.5254 0.1,-0.87653 0.45073,-1.5442 1.05045,-2 0.67969,-0.52592 1.69858,-0.78906 3.05795,-0.78906 1.39936,0 2.44941,0.22975 3.14909,0.68555 0.6597,0.43827 0.98893,1.08631 0.98893,1.94531 0,0.75382 -0.30034,1.27029 -0.90006,1.55078 -0.61972,0.29802 -1.999,0.57884 -4.13803,0.8418 -2.41888,0.26296 -4.08889,0.85012 -5.00846,1.76172 -0.61971,0.6311 -0.92969,1.52461 -0.92969,2.68164 0,1.27974 0.45166,2.27143 1.35124,2.97266 0.91958,0.73628 2.27732,1.10351 4.07649,1.10351 1.3194,0 2.49923,-0.20031 3.53875,-0.60351 0.75965,-0.29803 1.43966,-0.70255 2.03938,-1.21094 0,0.54345 0.1802,0.9303 0.54004,1.1582 0.4398,0.24543 1.22804,0.36719 2.36752,0.36719 0.27987,0 0.50088,-0.0786 0.66081,-0.23633 0.13993,-0.14025 0.20962,-0.30716 0.20962,-0.5 -0.02,-0.21037 -0.0993,-0.38515 -0.23924,-0.52539 -0.15993,-0.14025 -0.35941,-0.21094 -0.5993,-0.21094 -0.35983,0 -0.64091,-0.0864 -0.84081,-0.26172 -0.17992,-0.15777 -0.26889,-0.38752 -0.26889,-0.68554 l 0,-8.33399 c 0,-1.38492 -0.5814,-2.41196 -1.74088,-3.07812 -1.01953,-0.57852 -2.42771,-0.86719 -4.22688,-0.86719 z m 54.27506,0 c -1.25941,0 -2.35991,0.23761 -3.29947,0.71094 -0.89959,0.45579 -1.63739,1.1117 -2.21712,1.9707 l 0,-1.62891 c 0,-0.26296 -0.10088,-0.47503 -0.30079,-0.63281 -0.17991,-0.14024 -0.38902,-0.20898 -0.62891,-0.20898 -0.25987,0 -0.48088,0.0687 -0.6608,0.20898 -0.17992,0.15778 -0.26888,0.36985 -0.26888,0.63281 l 0,13.06836 c 0,0.28049 0.089,0.50043 0.26888,0.65821 0.17992,0.15777 0.40093,0.23632 0.6608,0.23632 0.23989,-0.0175 0.449,-0.0961 0.62891,-0.23632 0.19991,-0.17531 0.30079,-0.40506 0.30079,-0.68555 l 0,-9.36133 c 0.69967,-1.12196 1.51908,-1.95459 2.45865,-2.49805 0.89959,-0.52592 1.91847,-0.78906 3.05794,-0.78906 1.03953,0 1.86857,0.28082 2.48829,0.8418 0.55975,0.49086 0.84082,1.11337 0.84082,1.86719 l 0,9.96679 c 0,0.26296 0.089,0.4829 0.26888,0.65821 0.17991,0.14024 0.40093,0.20898 0.6608,0.20898 0.23989,0 0.44899,-0.0687 0.62892,-0.20898 0.19991,-0.17531 0.30078,-0.39525 0.30078,-0.65821 l 0,-9.96679 c 0,-1.1395 -0.43974,-2.09389 -1.31934,-2.86524 -0.95956,-0.859 -2.24988,-1.28906 -3.86915,-1.28906 z m -87.62077,0.0527 c -2.37892,0 -4.23646,0.77176 -5.57585,2.31446 -1.17947,1.36739 -1.77051,3.09354 -1.77051,5.17968 0,2.06862 0.59104,3.78691 1.77051,5.1543 1.33939,1.56023 3.19693,2.33985 5.57585,2.33984 2.35892,0 4.20911,-0.77961 5.5485,-2.33984 1.19945,-1.36739 1.80013,-3.08568 1.80013,-5.1543 0,-2.08614 -0.60068,-3.81229 -1.80013,-5.17968 -1.33939,-1.5427 -3.18958,-2.31446 -5.5485,-2.31446 z m 68.30925,0 c -2.37891,0 -4.23874,0.77176 -5.57812,2.31446 -1.17947,1.36739 -1.76824,3.09354 -1.76824,5.17968 0,2.06862 0.58877,3.78691 1.76824,5.1543 1.33938,1.56023 3.19921,2.33985 5.57812,2.33984 2.35892,0 4.20911,-0.77961 5.54851,-2.33984 1.19945,-1.36739 1.79784,-3.08568 1.79784,-5.1543 0,-2.08614 -0.59839,-3.81229 -1.79784,-5.17968 -1.3394,-1.5427 -3.18959,-2.31446 -5.54851,-2.31446 z m -204.95511,1.39258 c 1.47932,0 2.6784,0.57931 3.59798,1.73633 0.73967,0.94666 1.16977,2.04243 1.28972,3.28711 l -9.74578,0 c 0.11995,-1.27974 0.55006,-2.38338 1.28972,-3.3125 0.89959,-1.13949 2.08904,-1.71094 3.56836,-1.71094 z m 37.96225,0 c 1.47932,0 2.67839,0.57931 3.59797,1.73633 0.73967,0.94666 1.16977,2.04243 1.28972,3.28711 l -9.74577,0 c 0.11995,-1.27974 0.55005,-2.38338 1.28972,-3.3125 0.89958,-1.13949 2.08903,-1.71094 3.56836,-1.71094 z m 28.06608,0.0527 c 1.67923,0 2.98881,0.62251 3.92839,1.86718 0.83961,1.10444 1.26009,2.4987 1.26009,4.18164 0,1.66542 -0.42048,3.04987 -1.26009,4.1543 -0.93958,1.24468 -2.24916,1.86719 -3.92839,1.86719 -1.69923,0 -3.01844,-0.62251 -3.95801,-1.86719 -0.81962,-1.10443 -1.22819,-2.48888 -1.22819,-4.1543 0,-1.68294 0.40857,-3.0772 1.22819,-4.18164 0.93957,-1.24467 2.25878,-1.86718 3.95801,-1.86718 z m 70.61753,0 c 1.75919,0 3.12885,0.62251 4.10839,1.86718 0.8996,1.10444 1.34896,2.4987 1.34896,4.18164 0,1.64789 -0.44936,3.03234 -1.34896,4.1543 -0.97954,1.24468 -2.3492,1.86719 -4.10839,1.86719 -1.77919,0 -3.16811,-0.62251 -4.16765,-1.86719 -0.8596,-1.10443 -1.28972,-2.48888 -1.28972,-4.1543 0,-1.68294 0.43012,-3.0772 1.28972,-4.18164 0.99954,-1.24467 2.38846,-1.86718 4.16765,-1.86718 z m 68.30925,0 c 1.7592,0 3.12885,0.62251 4.1084,1.86718 0.89959,1.10444 1.34895,2.4987 1.34895,4.18164 0,1.64789 -0.44936,3.03234 -1.34895,4.1543 -0.97955,1.24468 -2.3492,1.86719 -4.1084,1.86719 -1.77919,0 -3.1681,-0.62251 -4.16765,-1.86719 -0.8596,-1.10443 -1.28971,-2.48888 -1.28971,-4.1543 0,-1.68294 0.43011,-3.0772 1.28971,-4.18164 0.99955,-1.24467 2.38846,-1.86718 4.16765,-1.86718 z m -30.85515,5.18164 0,4.4707 c -0.45978,0.71876 -1.13016,1.27844 -2.00976,1.68164 -0.97956,0.4558 -2.15937,0.68359 -3.53875,0.68359 -1.21943,0 -2.11817,-0.22779 -2.69791,-0.68359 -0.55975,-0.42074 -0.84082,-1.06092 -0.84082,-1.91992 0,-0.89407 0.30034,-1.56764 0.90006,-2.02344 0.61972,-0.49086 1.67941,-0.82469 3.17871,-1 1.49932,-0.17531 2.67914,-0.37757 3.53875,-0.60547 0.69967,-0.19283 1.18985,-0.39315 1.46972,-0.60351 z"
       id="elem7"
       inkscape:connector-curvature="0" />
  </g>
</svg>
