<?xml version="1.0" encoding="UTF-8" standalone="no"?>
<!-- Created with Inkscape (http://www.inkscape.org/) -->

<svg
   xmlns:dc="http://purl.org/dc/elements/1.1/"
   xmlns:cc="http://creativecommons.org/ns#"
   xmlns:rdf="http://www.w3.org/1999/02/22-rdf-syntax-ns#"
   xmlns:svg="http://www.w3.org/2000/svg"
   xmlns="http://www.w3.org/2000/svg"
   xmlns:sodipodi="http://sodipodi.sourceforge.net/DTD/sodipodi-0.dtd"
   xmlns:inkscape="http://www.inkscape.org/namespaces/inkscape"
   width="210mm"
   height="110mm"
   viewBox="0 0 744.09445 389.76377"
   id="svg3"
   version="1.1"
   inkscape:version="0.91 r13725"
   sodipodi:docname="Logo MeuseTech top.svg">
  <defs
     id="defs4" />
  <sodipodi:namedview
     id="base"
     pagecolor="#ffffff"
     bordercolor="#666666"
     borderopacity="1.0"
     inkscape:pageopacity="0.0"
     inkscape:pageshadow="2"
     inkscape:zoom="0.98994949"
     inkscape:cx="271.64285"
     inkscape:cy="246.19218"
     inkscape:document-units="px"
     inkscape:current-layer="layer1"
     showgrid="false"
     units="mm"
     height="110mm"
     inkscape:window-width="1920"
     inkscape:window-height="1017"
     inkscape:window-x="-8"
     inkscape:window-y="-8"
     inkscape:window-maximized="1" />
  <metadata
     id="metadata7">
    <rdf:RDF>
      <cc:Work
         rdf:about="">
        <dc:format>image/svg+xml</dc:format>
        <dc:type
           rdf:resource="http://purl.org/dc/dcmitype/StillImage" />
        <dc:title></dc:title>
      </cc:Work>
    </rdf:RDF>
  </metadata>
  <g
     inkscape:label="Calque 1"
     inkscape:groupmode="layer"
     id="layer1"
     transform="translate(0,-662.59853)">
    <g
       id="layer1-8"
       inkscape:label="Calque 1"
       transform="translate(-3.5714571,691.42854)">
      <g
         transform="matrix(-1,0,0,1,745.5912,-54.385339)"
         inkscape:label="Calque 1"
         id="layer1-36">
        <g
           id="g3877"
           transform="translate(-1654.6462,-369.87141)">
          <g
             transform="translate(0,-308.26772)"
             style="display:inline"
             inkscape:label="Pourquoi"
             id="layer5" />
          <g
             transform="translate(0,-308.26772)"
             style="display:inline"
             inkscape:label="Sondages"
             id="layer4" />
          <g
             transform="translate(0,-308.26772)"
             style="display:inline"
             inkscape:label="Actu"
             id="layer3" />
          <g
             transform="translate(0,-308.26772)"
             style="display:inline"
             inkscape:label="Projets"
             id="layer2" />
          <g
             transform="matrix(0,1,-1,0,2707.1673,5.4971795)"
             style="display:inline;opacity:1"
             id="layer1-9"
             inkscape:label="Calque 1">
            <g
               transform="translate(-20.480896,382.16312)"
               id="layer1-3"
               inkscape:label="Layer 1">
              <path
                 style="opacity:1;fill:#2b1100;fill-opacity:1;stroke:#000000;stroke-width:0;stroke-miterlimit:4;stroke-dasharray:none;stroke-opacity:1"
                 d="m 574.3743,25.840641 0,115.726559 a 180.09126,180.09126 0 0 1 48.39062,53.83984 l 87.98829,-50.79883 A 281.73785,281.73785 0 0 0 574.3743,25.840641 Z"
                 id="path6087"
                 inkscape:connector-curvature="0" />
              <path
                 style="opacity:1;fill:#0044aa;fill-opacity:1;stroke:#000000;stroke-width:0;stroke-miterlimit:4;stroke-dasharray:none;stroke-opacity:1"
                 d="m 628.71892,204.6006 a 180.09126,180.09126 0 0 1 24.67383,90.45899 l 101.64649,0 A 281.73785,281.73785 0 0 0 716.70721,153.80177 l -87.98829,50.79883 z"
                 id="path6085"
                 inkscape:connector-curvature="0" />
              <path
                 style="opacity:1;fill:#d45500;fill-opacity:1;stroke:#000000;stroke-width:0;stroke-miterlimit:4;stroke-dasharray:none;stroke-opacity:1"
                 d="m 628.82831,390.27834 87.8789,50.73828 a 281.73785,281.73785 0 0 0 38.33203,-141.18555 281.73785,281.73785 0 0 0 -0.004,-0.084 l -101.64649,0 a 180.09126,180.09126 0 0 1 0.004,0.084 180.09126,180.09126 0 0 1 -24.56445,90.44727 z"
                 id="path6083"
                 inkscape:connector-curvature="0" />
              <path
                 style="opacity:1;fill:#008080;fill-opacity:1;stroke:#000000;stroke-width:0;stroke-miterlimit:4;stroke-dasharray:none;stroke-opacity:1"
                 d="m 622.602,400.75819 a 180.09126,180.09126 0 0 1 -48.50391,54.17382 l 0,115.69532 A 281.73785,281.73785 0 0 0 710.4809,451.49647 L 622.602,400.75819 Z"
                 id="path6081"
                 inkscape:connector-curvature="0" />
              <path
                 style="fill:#c0c0c0;fill-opacity:1;stroke-width:0;stroke-miterlimit:4;stroke-dasharray:none"
                 d="m 551.68878,480.03409 0,-353.97158 a 181.32838,208.77933 0 0 0 -85.45013,177.06505 181.32838,208.77933 0 0 0 85.45013,176.90653 z"
                 id="path4552"
                 inkscape:connector-curvature="0" />
              <rect
                 transform="scale(1,-1)"
                 style="fill:#7f7f7f;fill-opacity:1;stroke-width:0;stroke-miterlimit:4;stroke-dasharray:none"
                 id="rect4550"
                 width="3.0580144"
                 height="668.50098"
                 x="550.96973"
                 y="-634.01727" />
              <a xlink:href="/sondages">
                <path
                 inkscape:connector-curvature="0"
                 id="orange"
                 d="m 625.31268,390.27834 87.8789,50.73828 a 281.73785,281.73785 0 0 0 38.33203,-141.18555 281.73785,281.73785 0 0 0 -0.004,-0.084 l -101.64649,0 a 180.09126,180.09126 0 0 1 0.004,0.084 180.09126,180.09126 0 0 1 -24.56445,90.44727 z"
                 style="opacity:1;fill:#ec8e2c;fill-opacity:1;stroke:#000000;stroke-width:0;stroke-miterlimit:4;stroke-dasharray:none;stroke-opacity:1" />
              </a>
              <a xlink:href="/pourquoi">
                <path
                 inkscape:connector-curvature="0"
                 id="vert"
                 d="m 622.602,394.4608 a 180.09126,180.09126 0 0 1 -48.50391,54.17382 l 0,115.69532 A 281.73785,281.73785 0 0 0 710.4809,445.19908 L 622.602,394.4608 Z"
                 style="opacity:1;fill:#33b160;fill-opacity:1;stroke:#000000;stroke-width:0;stroke-miterlimit:4;stroke-dasharray:none;stroke-opacity:1" />
              </a>
              <a xlink:href="/derniere-actualite">
                <path
                 inkscape:connector-curvature="0"
                 id="bleu"
                 d="m 625.19939,204.6006 a 180.09126,180.09126 0 0 1 24.67383,90.45899 l 101.64649,0 A 281.73785,281.73785 0 0 0 713.18768,153.80177 l -87.98829,50.79883 z"
                 style="opacity:1;fill:#0173bc;fill-opacity:1;stroke:#000000;stroke-width:0;stroke-miterlimit:4;stroke-dasharray:none;stroke-opacity:1" />
              </a>
              <a xlink:href="/projets">
                <path
                 inkscape:connector-curvature="0"
                 id="marron"
                 d="m 574.3743,31.632995 0,115.726555 a 180.09126,180.09126 0 0 1 48.39062,53.83984 l 87.98829,-50.79883 A 281.73785,281.73785 0 0 0 574.3743,31.632995 Z"
                 style="opacity:1;fill:#662c1e;fill-opacity:1;stroke:#000000;stroke-width:0;stroke-miterlimit:4;stroke-dasharray:none;stroke-opacity:1" />
              </a>
            </g>
          </g>
          <path
             style="font-style:normal;font-variant:normal;font-weight:normal;font-stretch:normal;font-size:71.30758667px;line-height:125%;font-family:'Century Gothic';-inkscape-font-specification:'Century Gothic, Normal';text-align:start;letter-spacing:0px;word-spacing:0px;writing-mode:lr-tb;text-anchor:start;display:inline;opacity:1;fill:#000000;fill-opacity:1;stroke:none;stroke-width:1px;stroke-linecap:butt;stroke-linejoin:miter;stroke-opacity:1"
             d="m 1989.0355,436.03952 c 1.7614,1e-5 3.1625,0.47825 4.2064,1.4336 1.109,1.07477 1.6634,2.387 1.6634,3.93945 0,2.20926 -1.2702,3.67216 -3.8145,4.38867 -1.37,0.29855 -2.0553,0.98578 -2.0553,2.06055 0,2.32868 1.9555,4.71792 5.8698,7.16602 l -1.5655,1.43164 c -3.9143,-2.56752 -6.5878,-5.04521 -8.0231,-7.4336 -1.4352,-2.38838 -2.1533,-4.53851 -2.1533,-6.44922 0,-2.03012 0.6199,-3.70201 1.8594,-5.01562 1.3048,-1.01506 2.6427,-1.52149 4.0127,-1.52149 z m -173.3799,2.10352 0,53.10742 -5.6237,0 0,-14.05078 c 0,-5.07137 -0.2666,-8.54749 -0.8021,-10.42578 -0.8568,-2.91134 -2.6251,-5.35202 -5.3024,-7.32422 -2.7041,-1.9722 -5.7554,-2.95898 -9.1556,-2.95898 -2.9719,0 -5.3685,0.64618 -7.1892,1.9375 -1.8473,1.26784 -3.1183,3.16939 -3.8144,5.70508 -0.4016,1.47914 -0.6016,4.42587 -0.6016,8.83984 l 0,18.27734 -5.6237,0 0,-19.7207 c 0,-5.23572 0.6022,-9.07581 1.807,-11.51758 1.2048,-2.46525 3.0802,-4.42519 5.6237,-5.88086 2.5167,-1.45567 5.4084,-2.18359 8.6748,-2.18359 3.186,0 6.1444,0.65785 8.8753,1.97265 2.7309,1.29133 5.2324,3.25126 7.5082,5.88086 l 0,-21.6582 5.6237,0 z m 445.578,1.30274 8.3922,51.80468 -5.7034,0 -5.7422,-37.33008 -21.1641,37.33008 -1.4857,0 -20.8838,-37.04883 -5.7832,37.04883 -5.8219,0 8.472,-51.80468 0.9639,0 23.7754,42.50781 24.0169,-42.50781 0.9639,0 z m -299.1135,0 0,5.03515 -13.2139,0 0,46.76953 -6.0224,0 0,-46.76953 -13.1729,0 0,-5.03515 32.4092,0 z m 209.2733,12.50195 c 7.2288,0 13.0003,2.41732 17.3108,7.2539 3.4003,3.80353 5.0997,8.13603 5.0997,12.9961 0,5.16528 -2.0088,9.80336 -6.0248,13.91211 -4.016,4.08527 -9.5853,6.12695 -16.707,6.12695 -3.2128,0 -6.0903,-0.42235 -8.6338,-1.26758 -2.5435,-0.8687 -4.8331,-2.12408 -6.8679,-3.76758 -2.0347,-1.6435 -3.827,-3.80391 -5.3798,-6.48046 l 4.7373,-2.1836 c 1.7135,2.51221 3.308,4.33201 4.7806,5.45899 1.4725,1.12697 3.2647,2.03006 5.3798,2.71093 2.0884,0.68088 4.2446,1.02149 6.4668,1.02149 4.6051,0 8.4727,-1.42081 11.6052,-4.26172 3.1325,-2.86439 4.7533,-6.52735 4.8603,-10.98828 l -39.277,0 c 0.054,-5.23572 1.6601,-9.6013 4.8194,-13.09961 4.4444,-4.95398 10.3873,-7.43164 17.8304,-7.43164 z m -92.9712,0 c 3.4538,0 6.3193,0.96343 8.5951,2.88867 2.2489,1.92524 3.3746,4.34256 3.3746,7.25391 0,2.23046 -0.7115,4.21375 -2.1305,5.95117 -1.419,1.73741 -4.0942,3.49883 -8.0299,5.2832 -3.668,1.6435 -6.0242,3.00592 -7.0684,4.08594 -1.0442,1.10349 -1.5677,2.35886 -1.5677,3.76758 0,1.71393 0.7902,3.20481 2.3698,4.47265 1.5796,1.26785 3.4932,1.90235 5.7422,1.90235 3.2128,0 6.2521,-1.42082 9.1168,-4.26172 l 3.5342,3.52148 c -1.4993,1.69046 -3.3867,3.01785 -5.6624,3.98047 -2.3025,0.96262 -4.7112,1.44336 -7.2279,1.44336 -3.775,0 -6.9214,-1.09188 -9.4381,-3.27539 -2.5167,-2.18351 -3.7758,-4.84801 -3.7758,-7.99414 0,-2.23046 0.7378,-4.23711 2.2103,-6.02148 1.4994,-1.7609 4.3364,-3.59238 8.5131,-5.49415 3.427,-1.54958 5.6761,-2.90033 6.747,-4.05078 1.071,-1.12697 1.6065,-2.31227 1.6065,-3.55664 0,-1.40871 -0.6426,-2.64073 -1.9278,-3.69726 -1.3119,-1.05654 -2.8779,-1.58594 -4.6985,-1.58594 -2.8648,0 -5.797,1.28068 -8.7956,3.83984 l -3.6139,-3.27539 c 4.0695,-3.45135 8.1109,-5.17773 12.1269,-5.17773 z m -42.4489,0 c 7.2289,0 12.9981,2.41732 17.3086,7.2539 3.4002,3.80353 5.1019,8.13603 5.1019,12.9961 0,5.16528 -2.0087,9.80336 -6.0247,13.91211 -4.0161,4.08527 -9.5853,6.12695 -16.7071,6.12695 -3.2128,0 -6.0903,-0.42235 -8.6338,-1.26758 -2.5434,-0.8687 -4.833,-2.12408 -6.8678,-3.76758 -2.0348,-1.6435 -3.827,-3.80391 -5.3799,-6.48046 l 4.7373,-2.1836 c 1.7135,2.51221 3.3081,4.33201 4.7806,5.45899 1.4726,1.12697 3.2648,2.03006 5.3799,2.71093 2.0883,0.68088 4.2446,1.02149 6.4668,1.02149 4.605,0 8.4727,-1.42081 11.6051,-4.26172 3.1325,-2.86439 4.7533,-6.52735 4.8604,-10.98828 l -39.277,0 c 0.054,-5.23572 1.66,-9.6013 4.8193,-13.09961 4.4444,-4.95398 10.3874,-7.43164 17.8304,-7.43164 z m -133.973,0 c 7.2288,0 12.9981,2.41732 17.3086,7.2539 3.4002,3.80353 5.0996,8.13603 5.0996,12.9961 0,5.16528 -2.0064,9.80336 -6.0224,13.91211 -4.0161,4.08527 -9.5853,6.12695 -16.7071,6.12695 -3.2128,0 -6.0926,-0.42235 -8.6361,-1.26758 -2.5434,-0.8687 -4.8307,-2.12408 -6.8655,-3.76758 -2.0348,-1.6435 -3.8293,-3.80391 -5.3822,-6.48046 l 4.7396,-2.1836 c 1.7135,2.51221 3.3058,4.33201 4.7783,5.45899 1.4726,1.12697 3.2671,2.03006 5.3822,2.71093 2.0883,0.68088 4.2423,1.02149 6.4645,1.02149 4.6051,0 8.4749,-1.42081 11.6074,-4.26172 3.1325,-2.86439 4.751,-6.52735 4.8581,-10.98828 l -39.277,0 c 0.053,-5.23572 1.6601,-9.6013 4.8193,-13.09961 4.4444,-4.95398 10.3897,-7.43164 17.8327,-7.43164 z m -55.583,0 c 4.605,0 8.77,0.89141 12.4915,2.67578 3.7216,1.78437 6.6515,4.27371 8.7933,7.4668 2.1151,3.1696 3.1742,6.60874 3.1742,10.31836 0,5.51746 -2.2776,10.20224 -6.8291,14.05273 -4.5515,3.85049 -10.2803,5.77539 -17.1878,5.77539 -4.498,0 -8.5012,-0.75128 -12.0085,-2.25391 -3.5341,-1.5261 -6.345,-3.66316 -8.4333,-6.41015 l 4.4593,-2.57031 c 4.0696,4.4844 9.3153,6.72656 15.7409,6.72656 3.5073,0 6.6799,-0.68121 9.5179,-2.04297 2.8112,-1.36176 5.0342,-3.27499 6.6673,-5.74023 1.6064,-2.46525 2.4108,-5.09473 2.4108,-7.88868 0,-4.29657 -1.754,-7.94787 -5.2614,-10.95312 -3.534,-3.00526 -7.9656,-4.50781 -13.2936,-4.50781 -6.6666,0 -11.9265,2.24215 -15.7819,6.72656 l -4.4593,-2.42969 c 1.3119,-1.92524 2.9065,-3.50954 4.7806,-4.75391 1.8742,-1.24436 4.1615,-2.2545 6.8656,-3.02929 2.6773,-0.7748 5.462,-1.16211 8.3535,-1.16211 z m 292.5281,0.98633 0,18.45312 c 0,5.44703 -0.6973,9.53235 -2.0895,12.25586 -1.419,2.70004 -3.5468,4.81374 -6.3847,6.33984 -2.8648,1.50263 -6.4254,2.25391 -10.6823,2.25391 -4.257,0 -7.7914,-0.75128 -10.6026,-2.25391 -2.838,-1.5261 -4.9539,-3.62813 -6.3461,-6.30468 -1.419,-2.67656 -2.1283,-6.65483 -2.1283,-11.9375 l 0,-18.80664 5.7423,0 0,17.89062 c 0,4.78963 0.2832,7.9232 0.8454,9.40234 0.83,2.16003 2.3414,3.90977 4.5368,5.24805 2.1686,1.3148 4.82,1.97266 7.9525,1.97266 3.1324,0 5.8362,-0.68121 8.1119,-2.04297 2.249,-1.36176 3.7746,-3.2166 4.5778,-5.56445 0.5355,-1.6435 0.8044,-4.64862 0.8044,-9.01563 l 0,-17.89062 5.6624,0 z m 32.3682,3.73242 c -2.597,0 -5.0723,0.48074 -7.4284,1.44336 -2.356,0.96262 -4.2457,2.23162 -5.6647,3.80468 -1.4457,1.57307 -2.543,3.67509 -3.2926,6.30469 l 32.5299,0 c -1.1512,-3.52178 -2.8506,-6.16489 -5.0996,-7.92578 -3.0789,-2.41829 -6.7608,-3.62695 -11.0446,-3.62695 z m -135.42,0 c -2.5971,0 -5.0746,0.48074 -7.4307,1.44336 -2.3561,0.96262 -4.2434,2.23162 -5.6624,3.80468 -1.4458,1.57307 -2.543,3.67509 -3.2927,6.30469 l 32.53,0 c -1.1513,-3.52178 -2.8507,-6.16489 -5.0996,-7.92578 -3.079,-2.41829 -6.7609,-3.62695 -11.0446,-3.62695 z m -133.9753,0 c -2.5971,0 -5.0723,0.48074 -7.4284,1.44336 -2.3561,0.96262 -4.2435,2.23162 -5.6624,3.80468 -1.4458,1.57307 -2.543,3.67509 -3.2927,6.30469 l 32.53,0 c -1.1513,-3.52178 -2.853,-6.16489 -5.1019,-7.92578 -3.079,-2.41829 -6.7609,-3.62695 -11.0446,-3.62695 z m 144.7601,50.84765 c 0.4598,0 0.6904,0.21799 0.6904,0.65625 l 0,6.39063 c 0,0.38567 -0.2306,0.57812 -0.6904,0.57812 -0.4598,0 -0.6904,-0.19245 -0.6904,-0.57812 l 0,-6.39063 c 0,-0.43826 0.2306,-0.65625 0.6904,-0.65625 z m -8.096,1.28711 c 0.4797,0 0.8498,0.14139 1.1097,0.42188 0.2399,0.26296 0.36,0.58698 0.36,0.97266 0,0.36814 -0.1201,0.67449 -0.36,0.91992 -0.2599,0.28049 -0.63,0.41992 -1.1097,0.41992 -0.4598,0 -0.8299,-0.13943 -1.1097,-0.41992 -0.2599,-0.26296 -0.3897,-0.56931 -0.3897,-0.91992 0,-0.38568 0.1298,-0.7097 0.3897,-0.97266 0.2798,-0.28049 0.6499,-0.42188 1.1097,-0.42188 z m -103.9336,0 c 0.4797,0 0.8498,0.14139 1.1096,0.42188 0.2399,0.26296 0.3601,0.58698 0.3601,0.97266 0,0.36814 -0.1202,0.67449 -0.3601,0.91992 -0.2598,0.28049 -0.6299,0.41992 -1.1096,0.41992 -0.4598,0 -0.8299,-0.13943 -1.1097,-0.41992 -0.2599,-0.26296 -0.3897,-0.56931 -0.3897,-0.91992 0,-0.38568 0.1298,-0.7097 0.3897,-0.97266 0.2798,-0.28049 0.6499,-0.42188 1.1097,-0.42188 z m 119.9456,0.0527 c 0.2599,0 0.4809,0.0609 0.6608,0.18359 0.1799,0.15778 0.2689,0.36985 0.2689,0.63281 l 0,6.83594 c 0.6197,-0.82394 1.3598,-1.42878 2.2194,-1.81445 0.8396,-0.38568 1.8296,-0.57813 2.9691,-0.57813 2.2989,0 4.0868,0.77176 5.3662,2.31446 1.1395,1.36739 1.709,3.09354 1.709,5.17968 0,2.06862 -0.5695,3.78691 -1.709,5.1543 -1.2794,1.56023 -3.0673,2.33985 -5.3662,2.33984 -1.1995,0 -2.2903,-0.23565 -3.2699,-0.70898 -0.8396,-0.42074 -1.4788,-0.93916 -1.9186,-1.55273 l 0,1.13086 c 0,0.24542 -0.089,0.44769 -0.2689,0.60546 -0.1799,0.14025 -0.3913,0.2188 -0.6312,0.23633 -0.2599,0 -0.4689,-0.0609 -0.6289,-0.18359 -0.1999,-0.15778 -0.3104,-0.37771 -0.3304,-0.6582 l 0,-18.24805 c 0,-0.28049 0.1009,-0.50043 0.3008,-0.6582 0.1799,-0.14025 0.389,-0.21094 0.6289,-0.21094 z m 97.3051,0.39453 c 0.4798,0 0.7201,0.24547 0.7201,0.73633 0,0.49086 -0.2403,0.73633 -0.7201,0.73633 l -6.3574,0 0,17.51367 c 0,0.24543 -0.089,0.44769 -0.2689,0.60547 -0.1799,0.14024 -0.4009,0.20898 -0.6608,0.20898 -0.2399,0 -0.449,-0.0687 -0.6289,-0.20898 -0.1999,-0.15778 -0.3008,-0.36004 -0.3008,-0.60547 l 0,-17.51367 -6.0862,0 c -0.2999,0 -0.5402,-0.0786 -0.7201,-0.23633 -0.1799,-0.14025 -0.2689,-0.30717 -0.2689,-0.5 0,-0.21037 0.089,-0.38515 0.2689,-0.52539 0.1799,-0.14025 0.4202,-0.21094 0.7201,-0.21094 l 14.303,0 z m -208.1043,0.81641 c 0.2599,0 0.4809,0.0609 0.6608,0.18359 0.18,0.14024 0.2689,0.34056 0.2689,0.60351 l 0,3.65626 1.6201,0 c 0.4598,0 0.6882,0.23565 0.6882,0.70898 0,0.49086 -0.2284,0.73633 -0.6882,0.73633 l -1.6201,0 0,10.54492 c 0,0.6837 -0.2402,1.263 -0.72,1.73633 -0.5198,0.54345 -1.2383,0.81445 -2.1579,0.81445 l -1.4105,0 c -0.2799,0 -0.5105,-0.0786 -0.6904,-0.23633 -0.1599,-0.14024 -0.2393,-0.30716 -0.2393,-0.5 0,-0.21037 0.079,-0.38514 0.2393,-0.52539 0.1799,-0.14024 0.4105,-0.21094 0.6904,-0.21094 l 1.0801,0 c 0.4398,0 0.7787,-0.13157 1.0185,-0.39453 0.2,-0.21036 0.3008,-0.47351 0.3008,-0.78906 l 0,-10.43945 -2.4586,0 c -0.5198,0 -0.7793,-0.24547 -0.7793,-0.73633 0,-0.47333 0.2595,-0.70898 0.7793,-0.70898 l 2.4586,0 0,-3.65626 c 0,-0.26295 0.1009,-0.46327 0.3008,-0.60351 0.1799,-0.12272 0.3987,-0.18359 0.6585,-0.18359 z m 94.7872,3.9707 c 0.2598,0 0.4786,0.0687 0.6585,0.20898 0.1799,0.12272 0.2712,0.30731 0.2712,0.55274 l 0,13.38476 c 0,0.26296 -0.091,0.4829 -0.2712,0.65821 -0.1799,0.14024 -0.3987,0.20898 -0.6585,0.20898 -0.2599,0 -0.4809,-0.0786 -0.6608,-0.23633 -0.2,-0.15777 -0.2986,-0.3679 -0.2986,-0.63086 l 0,-13.38476 c 0,-0.24543 0.099,-0.43788 0.2986,-0.57813 0.1799,-0.12271 0.4009,-0.18359 0.6608,-0.18359 z m -103.9336,0 c 0.2598,0 0.4808,0.0687 0.6608,0.20898 0.1799,0.12272 0.2688,0.30731 0.2688,0.55274 l 0,13.38476 c 0,0.26296 -0.089,0.4829 -0.2688,0.65821 -0.18,0.14024 -0.401,0.20898 -0.6608,0.20898 -0.2599,0 -0.4787,-0.0786 -0.6586,-0.23633 -0.1999,-0.15777 -0.3007,-0.3679 -0.3007,-0.63086 l 0,-13.38476 c 0,-0.24543 0.1008,-0.43788 0.3007,-0.57813 0.1799,-0.12271 0.3987,-0.18359 0.6586,-0.18359 z m 192.0922,0.0254 c 2.139,0 3.8379,0.77175 5.0973,2.31445 1.1395,1.41999 1.7113,3.15595 1.7113,5.20703 0,2.03356 -0.5718,3.74989 -1.7113,5.15235 -1.2594,1.5427 -2.9583,2.31445 -5.0973,2.31445 -1.5193,0 -2.8385,-0.34169 -3.958,-1.02539 -1.0995,-0.64863 -1.9382,-1.58535 -2.5179,-2.8125 -0.12,-0.26296 -0.12,-0.50843 0,-0.73633 0.1,-0.19284 0.2682,-0.32441 0.5081,-0.39453 0.2599,-0.0876 0.5098,-0.0975 0.7497,-0.0273 0.2599,0.10518 0.452,0.28977 0.5719,0.55273 0.4798,0.9116 1.0278,1.59499 1.6475,2.05078 0.7997,0.61358 1.7993,0.91992 2.9987,0.91992 1.5193,0 2.7303,-0.60483 3.6299,-1.81445 0.7796,-1.01678 1.2075,-2.26966 1.2874,-3.75976 l -11.7829,0 0,-0.41993 c 0,-2.05108 0.5792,-3.78704 1.7386,-5.20703 1.2795,-1.5427 2.988,-2.31445 5.127,-2.31445 z m -17.4818,0 c 0.9596,0 1.8198,0.21012 2.5795,0.63086 0.5797,0.31555 1.1203,0.78096 1.6201,1.39453 l 0,-1.07812 c 0,-0.24543 0.099,-0.43984 0.2985,-0.58008 0.1799,-0.10519 0.389,-0.15625 0.6289,-0.15625 0.2599,0 0.4809,0.0609 0.6608,0.18359 0.1799,0.14025 0.2689,0.32484 0.2689,0.55274 l 0,13.17382 c 0,0.26296 -0.089,0.47309 -0.2689,0.63086 -0.1799,0.14025 -0.4009,0.21094 -0.6608,0.21094 -0.2399,0 -0.449,-0.0707 -0.6289,-0.21094 -0.1999,-0.15777 -0.2985,-0.3679 -0.2985,-0.63086 l 0,-10.25586 c -0.3599,-0.68369 -0.8812,-1.21784 -1.5609,-1.60351 -0.7596,-0.43827 -1.6295,-0.65821 -2.609,-0.65821 -0.4998,0 -0.7378,-0.271 -0.7178,-0.81445 0.02,-0.52592 0.2483,-0.78906 0.6881,-0.78906 z m -10.254,0 c 0.9596,0 1.8175,0.21012 2.5772,0.63086 0.5797,0.31555 1.1203,0.78096 1.6201,1.39453 l 0,-1.07812 c 0,-0.24543 0.1009,-0.43984 0.3008,-0.58008 0.1799,-0.10519 0.389,-0.15625 0.6289,-0.15625 0.2599,0 0.4786,0.0609 0.6586,0.18359 0.1799,0.14025 0.2712,0.32484 0.2712,0.55274 l 0,13.17382 c 0,0.26296 -0.091,0.47309 -0.2712,0.63086 -0.18,0.14025 -0.3987,0.21094 -0.6586,0.21094 -0.2399,0 -0.449,-0.0707 -0.6289,-0.21094 -0.1999,-0.15777 -0.3008,-0.3679 -0.3008,-0.63086 l 0,-10.25586 c -0.3598,-0.68369 -0.8789,-1.21784 -1.5586,-1.60351 -0.7597,-0.43827 -1.6295,-0.65821 -2.609,-0.65821 -0.4998,0 -0.7401,-0.271 -0.7201,-0.81445 0.02,-0.52592 0.2506,-0.78906 0.6904,-0.78906 z m -10.2265,0 c 2.139,0 3.8379,0.77175 5.0973,2.31445 1.1395,1.41999 1.709,3.15595 1.709,5.20703 0,2.03356 -0.5695,3.74989 -1.709,5.15235 -1.2594,1.5427 -2.9583,2.31445 -5.0973,2.31445 -1.5193,0 -2.8386,-0.34169 -3.9581,-1.02539 -1.0994,-0.64863 -1.9381,-1.58535 -2.5179,-2.8125 -0.1199,-0.26296 -0.1199,-0.50843 0,-0.73633 0.1,-0.19284 0.2683,-0.32441 0.5082,-0.39453 0.2599,-0.0876 0.5098,-0.0975 0.7497,-0.0273 0.2598,0.10518 0.4497,0.28977 0.5696,0.55273 0.4798,0.9116 1.03,1.59499 1.6498,2.05078 0.7996,0.61358 1.7992,0.91992 2.9987,0.91992 1.5193,0 2.728,-0.60483 3.6276,-1.81445 0.7796,-1.01678 1.2097,-2.26966 1.2897,-3.75976 l -11.7829,0 0,-0.41993 c 0,-2.05108 0.5791,-3.78704 1.7386,-5.20703 1.2794,-1.5427 2.988,-2.31445 5.127,-2.31445 z m -63.7816,0 c 1.2594,0 2.3599,0.23761 3.2994,0.71094 0.8996,0.45579 1.6397,1.1117 2.2195,1.9707 l 0,-1.62891 c 0,-0.26296 0.099,-0.47503 0.2985,-0.63281 0.1799,-0.14024 0.3913,-0.20898 0.6311,-0.20898 0.2599,0 0.4787,0.0687 0.6586,0.20898 0.1799,0.15778 0.2711,0.36985 0.2711,0.63281 l 0,13.06836 c 0,0.28049 -0.091,0.50043 -0.2711,0.65821 -0.1799,0.15777 -0.3987,0.23632 -0.6586,0.23632 -0.2398,-0.0175 -0.4512,-0.0961 -0.6311,-0.23632 -0.1999,-0.17531 -0.2985,-0.40506 -0.2985,-0.68555 l 0,-9.36133 c -0.6997,-1.12196 -1.5191,-1.95459 -2.4587,-2.49805 -0.8996,-0.52592 -1.9208,-0.78906 -3.0602,-0.78906 -1.0395,0 -1.8686,0.28082 -2.4883,0.8418 -0.5597,0.49086 -0.8385,1.11337 -0.8385,1.86719 l 0,9.96679 c 0,0.26296 -0.091,0.4829 -0.2712,0.65821 -0.1799,0.14024 -0.3987,0.20898 -0.6585,0.20898 -0.2399,0 -0.4513,-0.0687 -0.6312,-0.20898 -0.1999,-0.17531 -0.2985,-0.39525 -0.2985,-0.65821 l 0,-9.96679 c 0,-1.1395 0.4397,-2.09389 1.3193,-2.86524 0.9596,-0.859 2.2476,-1.28906 3.8669,-1.28906 z m -17.8099,0 c 1.2594,0 2.3576,0.23761 3.2972,0.71094 0.8996,0.45579 1.6396,1.1117 2.2194,1.9707 l 0,-1.62891 c 0,-0.26296 0.1008,-0.47503 0.3008,-0.63281 0.1799,-0.14024 0.389,-0.20898 0.6289,-0.20898 0.2598,0 0.4786,0.0687 0.6585,0.20898 0.1799,0.15778 0.2712,0.36985 0.2712,0.63281 l 0,13.06836 c 0,0.28049 -0.091,0.50043 -0.2712,0.65821 -0.1799,0.15777 -0.3987,0.23632 -0.6585,0.23632 -0.2399,-0.0175 -0.449,-0.0961 -0.6289,-0.23632 -0.2,-0.17531 -0.3008,-0.40506 -0.3008,-0.68555 l 0,-9.36133 c -0.6997,-1.12196 -1.5191,-1.95459 -2.4587,-2.49805 -0.8996,-0.52592 -1.9184,-0.78906 -3.0579,-0.78906 -1.0396,0 -1.8709,0.28082 -2.4906,0.8418 -0.5597,0.49086 -0.8385,1.11337 -0.8385,1.86719 l 0,9.96679 c 0,0.26296 -0.091,0.4829 -0.2712,0.65821 -0.1799,0.14024 -0.3986,0.20898 -0.6585,0.20898 -0.2399,0 -0.449,-0.0687 -0.6289,-0.20898 -0.1999,-0.17531 -0.3008,-0.39525 -0.3008,-0.65821 l 0,-9.96679 c 0,-1.1395 0.4397,-2.09389 1.3193,-2.86524 0.9596,-0.859 2.2499,-1.28906 3.8692,-1.28906 z m -28.0524,0 c 0.1199,0 0.2437,0.0177 0.3737,0.0527 0.2399,0.0701 0.4297,0.18402 0.5696,0.3418 0.14,0.17531 0.1711,0.36776 0.091,0.57813 l -5.5485,13.14843 c -0.1799,0.57852 -0.5596,0.86719 -1.1393,0.86719 -0.5597,0 -0.949,-0.28867 -1.1689,-0.86719 l -5.5782,-13.14843 c -0.08,-0.21037 -0.039,-0.40282 0.1208,-0.57813 0.1199,-0.15778 0.3098,-0.27167 0.5697,-0.3418 0.2598,-0.0701 0.5001,-0.0701 0.72,0 0.2399,0.0701 0.3986,0.21937 0.4785,0.44727 l 4.8285,11.9375 4.8284,-11.9375 c 0.1,-0.2279 0.2683,-0.37714 0.5082,-0.44727 0.1099,-0.0351 0.2264,-0.0527 0.3463,-0.0527 z m -22.3855,0 c 1.6793,0 3.0297,0.32402 4.0492,0.97266 1.0395,0.68369 1.6787,1.70092 1.9186,3.05078 0.06,0.26296 -10e-5,0.47308 -0.18,0.63086 -0.1599,0.15777 -0.3594,0.24614 -0.5993,0.26367 -0.2599,0.0175 -0.4809,-0.0355 -0.6608,-0.1582 -0.2199,-0.12272 -0.3497,-0.2975 -0.3896,-0.5254 -0.1,-0.87653 -0.4508,-1.5442 -1.0505,-2 -0.6797,-0.52592 -1.6986,-0.78906 -3.0579,-0.78906 -1.3994,0 -2.4494,0.22975 -3.1491,0.68555 -0.6597,0.43827 -0.989,1.08631 -0.989,1.94531 0,0.75382 0.3004,1.27029 0.9001,1.55078 0.6197,0.29802 1.999,0.57884 4.138,0.8418 2.4189,0.26296 4.0889,0.85012 5.0085,1.76172 0.6197,0.6311 0.9297,1.52461 0.9297,2.68164 0,1.27974 -0.4517,2.27143 -1.3513,2.97266 -0.9195,0.73628 -2.2773,1.10351 -4.0764,1.10351 -1.3194,0 -2.4993,-0.20031 -3.5388,-0.60351 -0.7596,-0.29803 -1.4397,-0.70255 -2.0394,-1.21094 0,0.54345 -0.1802,0.9303 -0.54,1.1582 -0.4398,0.24543 -1.2281,0.36719 -2.3675,0.36719 -0.2799,0 -0.5009,-0.0786 -0.6608,-0.23633 -0.14,-0.14025 -0.2097,-0.30716 -0.2097,-0.5 0.02,-0.21037 0.099,-0.38515 0.2393,-0.52539 0.1599,-0.14025 0.3594,-0.21094 0.5993,-0.21094 0.3598,0 0.6409,-0.0864 0.8408,-0.26172 0.1799,-0.15777 0.2689,-0.38752 0.2689,-0.68554 l 0,-8.33399 c 0,-1.38492 0.5814,-2.41196 1.7409,-3.07812 1.0195,-0.57852 2.4277,-0.86719 4.2268,-0.86719 z m -54.275,0 c 1.2594,0 2.3599,0.23761 3.2995,0.71094 0.8995,0.45579 1.6373,1.1117 2.2171,1.9707 l 0,-1.62891 c 0,-0.26296 0.1008,-0.47503 0.3008,-0.63281 0.1799,-0.14024 0.389,-0.20898 0.6289,-0.20898 0.2598,0 0.4809,0.0687 0.6608,0.20898 0.1799,0.15778 0.2688,0.36985 0.2688,0.63281 l 0,13.06836 c 0,0.28049 -0.089,0.50043 -0.2688,0.65821 -0.1799,0.15777 -0.401,0.23632 -0.6608,0.23632 -0.2399,-0.0175 -0.449,-0.0961 -0.6289,-0.23632 -0.2,-0.17531 -0.3008,-0.40506 -0.3008,-0.68555 l 0,-9.36133 c -0.6997,-1.12196 -1.5191,-1.95459 -2.4587,-2.49805 -0.8996,-0.52592 -1.9185,-0.78906 -3.0579,-0.78906 -1.0395,0 -1.8686,0.28082 -2.4883,0.8418 -0.5598,0.49086 -0.8408,1.11337 -0.8408,1.86719 l 0,9.96679 c 0,0.26296 -0.089,0.4829 -0.2689,0.65821 -0.1799,0.14024 -0.4009,0.20898 -0.6608,0.20898 -0.2399,0 -0.449,-0.0687 -0.6289,-0.20898 -0.1999,-0.17531 -0.3008,-0.39525 -0.3008,-0.65821 l 0,-9.96679 c 0,-1.1395 0.4397,-2.09389 1.3193,-2.86524 0.9596,-0.859 2.2499,-1.28906 3.8692,-1.28906 z m 87.6207,0.0527 c 2.379,0 4.2365,0.77176 5.5759,2.31446 1.1795,1.36739 1.7705,3.09354 1.7705,5.17968 0,2.06862 -0.591,3.78691 -1.7705,5.1543 -1.3394,1.56023 -3.1969,2.33985 -5.5759,2.33984 -2.3589,0 -4.2091,-0.77961 -5.5485,-2.33984 -1.1994,-1.36739 -1.8001,-3.08568 -1.8001,-5.1543 0,-2.08614 0.6007,-3.81229 1.8001,-5.17968 1.3394,-1.5427 3.1896,-2.31446 5.5485,-2.31446 z m -68.3092,0 c 2.3789,0 4.2387,0.77176 5.5781,2.31446 1.1795,1.36739 1.7683,3.09354 1.7683,5.17968 0,2.06862 -0.5888,3.78691 -1.7683,5.1543 -1.3394,1.56023 -3.1992,2.33985 -5.5781,2.33984 -2.3589,0 -4.2091,-0.77961 -5.5485,-2.33984 -1.1995,-1.36739 -1.7979,-3.08568 -1.7979,-5.1543 0,-2.08614 0.5984,-3.81229 1.7979,-5.17968 1.3394,-1.5427 3.1896,-2.31446 5.5485,-2.31446 z m 204.9552,1.39258 c -1.4793,0 -2.6784,0.57931 -3.598,1.73633 -0.7396,0.94666 -1.1697,2.04243 -1.2897,3.28711 l 9.7458,0 c -0.12,-1.27974 -0.5501,-2.38338 -1.2897,-3.3125 -0.8996,-1.13949 -2.0891,-1.71094 -3.5684,-1.71094 z m -37.9623,0 c -1.4794,0 -2.6784,0.57931 -3.598,1.73633 -0.7397,0.94666 -1.1698,2.04243 -1.2897,3.28711 l 9.7457,0 c -0.1199,-1.27974 -0.55,-2.38338 -1.2897,-3.3125 -0.8996,-1.13949 -2.089,-1.71094 -3.5683,-1.71094 z m -28.0661,0.0527 c -1.6793,0 -2.9888,0.62251 -3.9284,1.86718 -0.8396,1.10444 -1.2601,2.4987 -1.2601,4.18164 0,1.66542 0.4205,3.04987 1.2601,4.1543 0.9396,1.24468 2.2491,1.86719 3.9284,1.86719 1.6992,0 3.0184,-0.62251 3.958,-1.86719 0.8196,-1.10443 1.2282,-2.48888 1.2282,-4.1543 0,-1.68294 -0.4086,-3.0772 -1.2282,-4.18164 -0.9396,-1.24467 -2.2588,-1.86718 -3.958,-1.86718 z m -70.6176,0 c -1.7591,0 -3.1288,0.62251 -4.1083,1.86718 -0.8996,1.10444 -1.349,2.4987 -1.349,4.18164 0,1.64789 0.4494,3.03234 1.349,4.1543 0.9795,1.24468 2.3492,1.86719 4.1083,1.86719 1.7792,0 3.1682,-0.62251 4.1677,-1.86719 0.8596,-1.10443 1.2897,-2.48888 1.2897,-4.1543 0,-1.68294 -0.4301,-3.0772 -1.2897,-4.18164 -0.9995,-1.24467 -2.3885,-1.86718 -4.1677,-1.86718 z m -68.3092,0 c -1.7592,0 -3.1289,0.62251 -4.1084,1.86718 -0.8996,1.10444 -1.349,2.4987 -1.349,4.18164 0,1.64789 0.4494,3.03234 1.349,4.1543 0.9795,1.24468 2.3492,1.86719 4.1084,1.86719 1.7792,0 3.1681,-0.62251 4.1676,-1.86719 0.8596,-1.10443 1.2898,-2.48888 1.2898,-4.1543 0,-1.68294 -0.4302,-3.0772 -1.2898,-4.18164 -0.9995,-1.24467 -2.3884,-1.86718 -4.1676,-1.86718 z m 30.8551,5.18164 0,4.4707 c 0.4598,0.71876 1.1302,1.27844 2.0098,1.68164 0.9796,0.4558 2.1594,0.68359 3.5388,0.68359 1.2194,0 2.1181,-0.22779 2.6979,-0.68359 0.5597,-0.42074 0.8408,-1.06092 0.8408,-1.91992 0,-0.89407 -0.3004,-1.56764 -0.9001,-2.02344 -0.6197,-0.49086 -1.6794,-0.82469 -3.1787,-1 -1.4993,-0.17531 -2.6791,-0.37757 -3.5387,-0.60547 -0.6997,-0.19283 -1.1899,-0.39315 -1.4698,-0.60351 z"
             id="text4566-9"
             inkscape:connector-curvature="0" />
        </g>
      </g>
    </g>
    <a xlink:href="/">
      <rect
       style="fill:#008080;fill-opacity:0.49418604;stroke:#000000;stroke-width:0;stroke-miterlimit:4;stroke-dasharray:none;stroke-opacity:1"
       id="retourmenu"
       width="553.56354"
       height="140.41119"
       x="91.923859"
       y="663.45355" />
    </a>
  </g>
</svg>
